# AST/ASF file generated using VICON BodyLanguage
# -----------------------------------------------
:version 1.10
:name VICON
:units
  mass 1.0
  length 0.45
  angle deg
:documentation
   .ast/.asf automatically generated from VICON data using
   VICON BodyBuilder and BodyLanguage model FoxedUp or BRILLIANT.MOD
:root
   order TX TY TZ RX RY RZ
   axis XYZ
   position 0 0 0  
   orientation 0 0 0 
:bonedata
  begin
     id 1 
     name lhipjoint
     direction 0.573633 -0.743009 0.344793 
     length 2.46257 
     axis 0 0 0  XYZ
  end
  begin
     id 2 
     name lfemur
     direction 0.34202 -0.939693 0  
     length 7.3842  
     axis 0 0 20  XYZ
    dof rx ry rz
    limits (-160.0 20.0)
           (-70.0 70.0)
           (-60.0 70.0)
  end
  begin
     id 3 
     name ltibia
     direction 0.34202 -0.939693 0   
     length 7.50407   
     axis 0 0 20   XYZ
    dof rx
    limits (-10.0 170.0)
  end
  begin
     id 4 
     name lfoot
     direction 0.110749 -0.304281 0.946123   
     length 1.95925   
     axis -90 7.62852e-016 20   XYZ
    dof rx rz
    limits (-45.0 90.0)
           (-70.0 20.0)
  end
  begin
     id 5 
     name ltoes
     direction 1.53554e-011 -4.21843e-011 1   
     length 0.978318   
     axis -90 7.62852e-016 20   XYZ
    dof rx
    limits (-90.0 20.0)
  end
  begin
     id 6 
     name rhipjoint
     direction -0.488109 -0.791693 0.367385   
     length 2.31113  
     axis 0 0 0  XYZ 
  end
  begin
     id 7 
     name rfemur
     direction -0.34202 -0.939693 0   
     length 7.40965   
     axis 0 0 -20   XYZ
    dof rx ry rz
    limits (-160.0 20.0)
           (-70.0 70.0)
           (-70.0 60.0)
  end
  begin
     id 8 
     name rtibia
     direction -0.34202 -0.939693 0   
     length 7.55548   
     axis 0 0 -20   XYZ
    dof rx
    limits (-10.0 170.0)
 end
 begin
     id 9 
     name rfoot
     direction -0.127594 -0.350561 0.927808   
     length 2.07199  
     axis -90 -7.62852e-016 -20   XYZ
    dof rx rz
    limits (-45.0 90.0)
           (-20.0 70.0)
  end
  begin
     id 10 
     name rtoes
     direction -1.53542e-011 -4.21909e-011 1   
     length 1.02667   
     axis -90 -7.62852e-016 -20   XYZ
    dof rx
    limits (-90.0 20.0)
  end
  begin
     id 11 
     name lowerback
     direction -0.0103342 0.997298 -0.0727278   
     length 2.02836   
     axis 0 0 0   XYZ
    dof rx ry rz
    limits (-20.0 45.0)
           (-30.0 30.0)
           (-30.0 30.0)
  end
  begin
     id 12 
     name upperback
     direction 0.0171146 0.999786 -0.011606   
     length 2.03179   
     axis 0 0 0   XYZ
    dof rx ry rz
    limits (-20.0 45.0)
           (-30.0 30.0)
           (-30.0 30.0)
  end
  begin
     id 13 
     name thorax
     direction 0.0216927 0.999513 0.0224343   
     length 2.03882   
     axis 0 0 0   XYZ
    dof rx ry rz
    limits (-20.0 45.0)
           (-30.0 30.0)
           (-30.0 30.0)
  end
  begin
     id 14 
     name lowerneck
     direction 0.000989287 0.993907 0.110221   
     length 1.75428   
     axis 0 0 0   XYZ
    dof rx ry rz
    limits (-20.0 45.0)
           (-30.0 30.0)
           (-30.0 30.0)
  end
  begin
     id 15 
     name upperneck
     direction -0.0172474 0.994813 -0.100253   
     length 1.77058   
     axis 0 0 0   XYZ
    dof rx ry rz
    limits (-20.0 45.0)
           (-30.0 30.0)
           (-30.0 30.0)
  end
  begin
     id 16
     name head
     direction -0.00486455 0.99894 -0.0457663  
     length 1.77427  
     axis 0 0 0   XYZ
    dof rx ry rz
    limits (-20.0 45.0)
           (-30.0 30.0)
           (-30.0 30.0)
  end
  begin
     id 17 
     name lclavicle
     direction 0.927314 0.333734 -0.169441  
     length 3.97584  
     axis 0 0 0   XYZ
    dof ry rz
    limits (-20.0 10.0)
           (0.0 20.0)
  end
  begin
     id 18 
     name lhumerus
     direction 1 -4.48965e-011 -3.25313e-028   
     length 4.76468   
     axis 180 -30 -90   XYZ
    dof rx ry rz
    limits (-60.0 90.0)
           (-90.0 90.0)
           (-90.0 90.0)
  end
  begin
     id 19
     name lradius
     direction 1 -4.48969e-011 -2.8465e-028   
     length 3.52712   
     axis -180 -30 -90   XYZ
    dof rx
    limits (-10.0 170.0)
  end
  begin
     id 20
     name lwrist
     direction 1 -4.4896e-011 -7.78665e-028   
     length 1.76356   
     axis 1.91374e-015 90 90   XYZ
    dof ry
    limits (-180.0 0.0)
 end
  begin
     id 21 
     name lhand
     direction 1 -4.48959e-011 -1.55733e-027   
     length 0.859564   
     axis 9.9371e-016 90 90   XYZ
    dof rx rz
    limits (-90.0 90.0)
           (-45.0 45.0)
  end
  begin
     id 22 
     name lfingers
     direction 1 -4.48965e-011 -3.11466e-027   
     length 0.693002   
     axis 1.98742e-015 90 90   XYZ
    dof rx
    limits (0.0 90.0)
  end
  begin
     id 23
     name lthumb
     direction 0.707107 -6.34948e-011 0.707107   
     length 0.995017   
     axis -90 45 2.85299e-015   XYZ
    dof rx rz
    limits (-45.0 45.0)
           (-45.0 45.0)
  end
  begin
     id 24 
     name rclavicle
     direction -0.899388 0.348209 -0.264294   
     length 3.68366  
     axis 0 0 0   XYZ 
    dof ry rz
    limits (-10.0 20.0)
           (-20.0 0.0)
  end
  begin
     id 25 
     name rhumerus
     direction -1 -4.48965e-011 -3.01536e-027  
     length 4.90577   
     axis 180 30 90   XYZ
    dof rx ry rz
    limits (-90.0 60.0)
           (-90.0 90.0)
           (-90.0 90.0)
  end
  begin
     id 26 
     name rradius
     direction -1 -4.48966e-011 3.93291e-027   
     length 3.42692   
     axis -180 30 90   XYZ
    dof rx
    limits (-10.0 170.0)
  end
  begin
     id 27 
     name rwrist
     direction -1 -4.48969e-011 -7.78665e-028   
     length 1.71346   
     axis 1.91374e-015 -90 -90   XYZ
    dof ry
    limits (-180.0 0.0)
  end
  begin
     id 28
     name rhand
     direction -1 -4.48967e-011 -1.55733e-027   
     length 0.740957   
     axis 9.9371e-016 -90 -90   XYZ
    dof rx rz
    limits (-90.0 90.0)
           (-45.0 45.0)
  end
  begin
     id 29
     name rfingers
     direction -1 -4.48949e-011 -3.11466e-027   
     length 0.597378   
     axis 1.98742e-015 -90 -90   XYZ
    dof rx
    limits (0.0 90.0)
  end
  begin
     id 30
     name rthumb
     direction -0.707107 -6.34931e-011 0.707107   
     length 0.857719   
     axis -90 -45 -2.85299e-015   XYZ
    dof rx rz
    limits (-45.0 45.0)
           (-45.0 45.0)
  end
:hierarchy
  begin
    root lhipjoint rhipjoint lowerback
    lhipjoint lfemur
    lfemur ltibia
    ltibia lfoot
    lfoot ltoes
    rhipjoint rfemur
    rfemur rtibia
    rtibia rfoot
    rfoot rtoes
    lowerback upperback
    upperback thorax
    thorax lowerneck lclavicle rclavicle
    lowerneck upperneck
    upperneck head
    lclavicle lhumerus
    lhumerus lradius
    lradius lwrist
    lwrist lhand lthumb
    lhand lfingers
    rclavicle rhumerus
    rhumerus rradius
    rradius rwrist
    rwrist rhand rthumb
    rhand rfingers
  end

#!OML:ASF I:\AllaLogoMonkeySwing\Project 1\Capture day 1\Session 1\Subject1.ASF
:FULLY-SPECIFIED
:DEGREES
109
root -1.036 18.3643 -3.98049 4.96401 5.23096 -3.60729
lowerback 13.0516 -0.225462 -0.374717
upperback 0.650584 -0.39673 -0.642263
thorax -6.64292 -0.191207 -0.3929
lowerneck -16.4368 0.313689 -0.943205
upperneck 18.4312 0.209604 2.19405
head 8.44585 0.264724 0.91933
rclavicle -2.3059e-014 -1.59028e-015
rhumerus -42.2943 24.8867 -68.9049
rradius 85.054
rwrist -2.79078
rhand -10.3868 -31.0243
rfingers 7.12502
rthumb 15.6111 -60.4144
lclavicle -2.3059e-014 -1.59028e-015
lhumerus -44.305 0.843083 80.8266
lradius 56.0703
lwrist 0.522614
lhand -15.8632 -20.1867
lfingers 7.12502
lthumb 10.3322 9.53944
rfemur -2.5752 -10.7763 27.9449
rtibia 31.0753
rfoot 0.0177692 3.77955
rtoes 9.5176
lfemur -31.5995 17.0425 -6.24295
ltibia 76.3905
lfoot -13.3167 -7.53301
ltoes -28.8524
110
root -0.973613 18.6976 -3.68082 4.46126 4.2821 -3.64429
lowerback 12.9105 0.140409 -0.516032
upperback 0.916824 0.0797735 -0.506743
thorax -6.27911 0.0470606 -0.256825
lowerneck -16.5668 0.324637 -1.28065
upperneck 19.0944 0.223383 2.5632
head 8.69266 0.288636 1.10789
rclavicle -1.45113e-014 -1.11319e-014
rhumerus -41.6284 24.5326 -69.5494
rradius 84.4526
rwrist -3.45087
rhand -10.3557 -31.4739
rfingers 7.12502
rthumb 15.6411 -60.8616
lclavicle -1.45113e-014 -1.11319e-014
lhumerus -44.9638 2.76631 79.891
lradius 55.879
lwrist 1.12826
lhand -16.8291 -20.0782
lfingers 7.12502
lthumb 9.40025 9.69222
rfemur -3.68754 -12.4517 26.0465
rtibia 33.3039
rfoot 7.61495 6.91778
rtoes 5.88966
lfemur -30.2295 16.4266 -6.25562
ltibia 71.4453
lfoot -13.2035 -7.24884
ltoes -29.6518
111
root -0.908483 18.9679 -3.39288 3.91606 3.25941 -3.34593
lowerback 12.903 0.480486 -0.920595
upperback 1.16932 0.47735 -0.453372
thorax -6.01091 0.25198 -0.0422007
lowerneck -16.3331 0.414457 -1.39702
upperneck 19.3926 0.406875 2.40539
head 8.74789 0.348581 1.09738
rclavicle -1.8487e-014 -1.59028e-015
rhumerus -40.8805 24.0382 -70.2902
rradius 82.8665
rwrist -4.39173
rhand -10.1456 -32.0546
rfingers 7.12502
rthumb 15.8434 -61.4264
lclavicle -1.8487e-014 -1.59028e-015
lhumerus -45.8631 5.03369 78.8582
lradius 55.7406
lwrist 1.68864
lhand -17.4463 -20.0535
lfingers 7.12502
lthumb 8.80467 9.74285
rfemur -4.7262 -13.3994 23.8474
rtibia 36.3007
rfoot 6.86487 10.1655
rtoes 3.28544
lfemur -28.6664 15.521 -6.52776
ltibia 66.3743
lfoot -12.6332 -6.43576
ltoes -30.1274
112
root -0.840479 19.1656 -3.11678 3.35068 2.37454 -3.53913
lowerback 12.9708 0.69798 -0.581405
upperback 1.40316 0.821096 -0.343676
thorax -5.80021 0.412499 -0.178417
lowerneck -15.8403 0.521656 -1.3244
upperneck 19.4228 0.631856 1.9533
head 8.66603 0.409131 0.956418
rclavicle -8.44835e-015 1.19271e-014
rhumerus -39.9971 22.938 -71.1642
rradius 81.1096
rwrist -5.67876
rhand -9.96319 -32.9438
rfingers 7.12502
rthumb 16.0191 -62.3015
lclavicle -8.44835e-015 1.19271e-014
lhumerus -46.9309 7.2773 77.7377
lradius 55.7069
lwrist 2.32283
lhand -17.7542 -19.7864
lfingers 7.12502
lthumb 8.50751 10.0222
rfemur -6.05162 -13.9339 22.4711
rtibia 39.7885
rfoot 5.20438 7.62976
rtoes 1.85876
lfemur -27.1842 14.443 -6.12832
ltibia 61.3822
lfoot -11.6754 -5.23938
ltoes -30.3265
113
root -0.791821 19.3314 -2.85437 2.42677 1.77112 -1.9826
lowerback 13.7283 0.914988 -2.05669
upperback 1.73682 0.861424 -0.674261
thorax -5.88396 0.461208 0.292207
lowerneck -15.5908 0.655275 -1.45554
upperneck 19.7132 0.852503 1.91866
head 8.71487 0.498147 0.993717
rclavicle -2.98177e-016 -1.19271e-014
rhumerus -38.8584 21.3944 -72.0988
rradius 78.8038
rwrist -6.64426
rhand -9.98646 -33.9542
rfingers 7.12502
rthumb 15.9967 -63.3138
lclavicle -2.98177e-016 -1.19271e-014
lhumerus -47.9965 9.39706 76.5882
lradius 55.6303
lwrist 3.09098
lhand -17.9495 -19.5512
lfingers 7.12502
lthumb 8.31911 10.265
rfemur -7.32064 -14.8673 19.1341
rtibia 43.1625
rfoot 3.81361 4.27398
rtoes 0.120444
lfemur -25.1669 12.8312 -7.55015
ltibia 56.2331
lfoot -10.3087 -3.61823
ltoes -30.205
